/* XPM */
static char *exit_64x64_removebg_preview1695656364[] = {
/* columns rows colors chars-per-pixel */
"64 64 243 2 ",
"   c None",
".  c #00010D",
"X  c #080C08",
"o  c #050A16",
"O  c #0D1119",
"+  c #16161A",
"@  c #13120D",
"#  c #1E201F",
"$  c #21201A",
"%  c #0E142A",
"&  c #0E1424",
"*  c #121623",
"=  c #1B1D24",
"-  c #131A2B",
";  c #1A1D2A",
":  c #141827",
">  c #070937",
",  c #0F1537",
"<  c #161A37",
"1  c #070D22",
"2  c #211E2D",
"3  c #1D232B",
"4  c #1A2224",
"5  c #1C2432",
"6  c #1C263B",
"7  c #23232B",
"8  c #272728",
"9  c #33342B",
"0  c #232733",
"q  c #252A35",
"w  c #2A2D34",
"e  c #242B3C",
"r  c #2A2C3C",
"t  c #23223C",
"y  c #2E323C",
"u  c #2B3238",
"i  c #353534",
"p  c #34353C",
"a  c #3C3C38",
"s  c #2F3030",
"d  c #443D3C",
"f  c #43403C",
"g  c #0D174A",
"h  c #141C4C",
"j  c #181B47",
"k  c #0C175B",
"l  c #141C53",
"z  c #191D54",
"x  c #141D5A",
"c  c #181750",
"v  c #090C44",
"b  c #1C254C",
"n  c #0E2058",
"m  c #132153",
"M  c #14235B",
"N  c #1B255A",
"B  c #1B2758",
"V  c #252946",
"C  c #2D3447",
"Z  c #333544",
"A  c #3A3C43",
"S  c #353B4B",
"D  c #3A3D4A",
"F  c #343748",
"G  c #252B57",
"H  c #283357",
"J  c #353C53",
"K  c #363657",
"L  c #352B51",
"P  c #141F63",
"I  c #0D1B61",
"U  c #1C2964",
"Y  c #1C2B6B",
"T  c #172567",
"R  c #1C2D74",
"E  c #182B77",
"W  c #1C347A",
"Q  c #1B377A",
"!  c #19306C",
"~  c #232B67",
"^  c #23336C",
"/  c #293765",
"(  c #363A68",
")  c #222E73",
"_  c #253474",
"`  c #2B3B72",
"'  c #25357A",
"]  c #2B3C7B",
"[  c #253977",
"{  c #353D75",
"}  c #423C53",
"|  c #3B424D",
" . c #3B4147",
".. c #3C4454",
"X. c #384356",
"o. c #2C446C",
"O. c #35466A",
"+. c #2B457B",
"@. c #354778",
"#. c #3D527C",
"$. c #43434D",
"%. c #4A4947",
"&. c #524E4B",
"*. c #454A55",
"=. c #454C5C",
"-. c #484955",
";. c #504F59",
":. c #4D515B",
">. c #555453",
",. c #53545B",
"<. c #5B5957",
"1. c #54524C",
"2. c #464867",
"3. c #4C5464",
"4. c #4A5669",
"5. c #5C5C63",
"6. c #565969",
"7. c #484A76",
"8. c #485479",
"9. c #565977",
"0. c #544D6A",
"q. c #615C6F",
"w. c #5A6477",
"e. c #5A616E",
"r. c #676768",
"t. c #666B79",
"y. c #6A717E",
"u. c #777677",
"i. c #706E71",
"p. c #605F5D",
"a. c #807C7D",
"s. c #1E3783",
"d. c #243C83",
"f. c #2A3D83",
"g. c #253A88",
"h. c #2B3E89",
"j. c #254385",
"k. c #2C4384",
"l. c #25438B",
"z. c #2B438B",
"x. c #2B4B8C",
"c. c #294989",
"v. c #334584",
"b. c #344983",
"n. c #394C83",
"m. c #31458A",
"M. c #324B8C",
"N. c #394C8B",
"B. c #375287",
"V. c #2E4D93",
"C. c #2D4C9C",
"Z. c #2A4594",
"A. c #334D92",
"S. c #364D96",
"D. c #2E5096",
"F. c #335294",
"G. c #33529B",
"H. c #3B5797",
"J. c #2F538D",
"K. c #3755A2",
"L. c #454D83",
"P. c #46568A",
"I. c #565C86",
"U. c #455994",
"Y. c #575C95",
"T. c #5B6787",
"R. c #4A629A",
"E. c #556899",
"W. c #5D749E",
"Q. c #686887",
"!. c #6C758A",
"~. c #6A7483",
"^. c #757988",
"/. c #696B94",
"(. c #67769A",
"). c #767D94",
"_. c #726B8F",
"`. c #455CA7",
"'. c #4764A0",
"]. c #556AA4",
"[. c #5D76AB",
"{. c #5C74B3",
"}. c #6879A7",
"|. c #777BA4",
" X c #6A73AC",
".X c #655A84",
"XX c #847C96",
"oX c #867CA2",
"OX c #798395",
"+X c #78818E",
"@X c #7887A9",
"#X c #6983B7",
"$X c #798AB7",
"%X c #748BB5",
"&X c #7B93CA",
"*X c #868A99",
"=X c #89919E",
"-X c #898C96",
";X c #8487A7",
":X c #8C93A4",
">X c #8A95A8",
",X c #9499A8",
"<X c #8695B9",
"1X c #959BB5",
"2X c #848AB6",
"3X c #9BA4B7",
"4X c #9DA1AD",
"5X c #A1A6B7",
"6X c #879AC6",
"7X c #8A9CCC",
"8X c #8BA3C7",
"9X c #98A7C7",
"0X c #8AA5D8",
"qX c #96A9D7",
"wX c #9DB4D7",
"eX c #A3ABC4",
"rX c #A9B4C8",
"tX c #B2B8CC",
"yX c #A3B3D5",
"uX c #ABBBDC",
"iX c #A7B8D9",
"pX c #B2BCD8",
"aX c #9CB3E7",
"sX c #8EA3E4",
"dX c #A6BBE4",
"fX c #ACBEF0",
"gX c #BAC3D8",
"hX c #ABC0DD",
"jX c #ADC2E5",
"kX c #B2C2E4",
"lX c #B9C9EA",
"zX c #B9CAF5",
"xX c #BDD3FA",
"cX c #A8C0F6",
"vX c #C3CBDC",
"bX c #C9D4E8",
"nX c #D2DCEE",
"mX c #C3D5FD",
"MX c #C7DBFC",
"NX c #C9D4E9",
"BX c #D6E5F9",
"VX c #CCE5FF",
"CX c #E6F4FF",
/* pixels */
"                                                                                                                                ",
"                                                                                                                                ",
"                                                                                                                                ",
"                                                                                                                                ",
"                                                                                                                                ",
"                                                                                                                                ",
"                                                                                                                                ",
"                                                                                                                                ",
"                                                                                                                                ",
"                                                                                                                                ",
"                                                                                                                                ",
"                                                                                                                                ",
"                                                                                                                                ",
"                                                                                                                                ",
"                                                                                                                                ",
"                                                                                                                                ",
"                                                                                                                                ",
"                                                                                                                                ",
"                                                                                                                                ",
"                                                                                                                                ",
"                    b b H                                                                                                       ",
"                v g g j h h m l n T ! Y                                                                                       e ",
"              h l l l c h N N l T Q E W Q Q Q s.l.j.j.                B.+.+.B.J.                                L.P.{ ` { 7./ / ",
"              B L.L.L.z x g z P T W E W Q s.l.l.l.l.x.V.D.F.G.F.F.F.].#X[.'.R.H.H.G.H.K.G.K.D.D.G.F.G.x.z.M.z.M.z.m.h.N.] h.{ @.",
"              I.Y.L.Y.P.k l x l T E E ! R j.E j.j.x.c.c.l.J.V.M.H.+.#XVX0X#XVX&XF.M.H.G.V.G.F.D.C.C.C.C.C.C.C.l.Z.Z.Z.S.S.h.N.U.",
"              P.^ ~ {  X{ v ~ U T T R W E f.j.Q Q Q x.j.x.F.x.F.c.H.+.aXH.0X#XJ.M.x.V.F.H.x.x.F.C.C.C.C.D.V.C.G.C.Z.g.z.h.h.h.U.",
"              { z { z Y. Xc l x T k Y E f.! d.f.j.j.Q x.F.j.A.V.B.+.B.dX#X0XaX#XR.H.F.c.F.x.F.F.D.D.x.D.x.x.c.x.Z.l.D.F.j.] m.P.",
"            /.K oXoX7.7.|.N l x T _ _ T Y k.[ j.[ j.D.j.V.A.A.k.b.H.B.#X&X#XcX&X&XM.M.A.H.G.F.x.D.D.J.J.J.J.c.c.x.j.x.x.+.k.n.P.",
"            0.7.oX X.X( L.c G g x l x ~ ) _ R v.[ c.j.F.+.M.J.H.`.V.c.c.J.c.k.b.H.h.`.C.Z.K.G.G.J.F.J.c.l.x.x.D.G.l.V.Z.M.N.b.n.",
"            2..X_..XXX7.Y.L @.@.{ Y.Y.P.{ P.U.] R.b.].B.R.U.R.Q &X{.B.#.b.b.N.b.v.F.S.Z.Z.F.l.x.F.F.x.M.'.'.D.D.V.V.S.m.m.M.@.U.",
"            0.9.oXoX0.7..X( Y.Y.8.;X7.<X$X2XqXlXqX6XCX$XaXVXwX@.0X0X&Xo.%XMXW.qXjX[.+.&X0X#X[.].[.'.B.U.{.[.B.j.M.A.S.h.v.n.` P.",
"            0.} oXoX} .X{ L /.7.7.@X2.7.kX9.gXBXT.jX(.xXO.xX%Xo.dXuXwXo.lXwX9XlX<XE.#.xXwX8XmX6XxXfX7X6XwXsX6X&XaXaXaXdXcXqXP.L.",
"            .XL ( L Z ^.L O.O.I.Q.I.H ( 9XH lXBX$XiX8.jX<XiX` 8.iXwX8XO.xXo.O.MXkXT.@.MXyX$XBXiXkXwXMXqXwX%X8XMX#XjX[.E.xX6X@.P.",
"            oX9.} L q.XX6 K (.I.I.}.9.O.|.@.7X<XlXjXMXjXmXqXR.o.hXwXdXOXMX@XwXlX}.8.8.zX@X@XuXVXuXyXlXMXwX@XOXiX#.zXiX/ 0XE.` L.",
"            _.9.0.0._.).< j / h b O./ G { ( L.8.OXW.wXT.qXjX7Xo.8X8XVXwX8XCX&XxXmX%X#.VXjXqXjXiXqXuX<XzXhX<XR.iX#.zXE.O.aX|.G P.",
"            7.K 5.} } 2., < g x l g l N N U N ~ B o./ / @./ / #.o.o.o.@.B.wX#.B.E.n.B.Y.%XW.T.[.(.@XE.(.$X}.P.$Xo.aXxXR.7X].` P.",
"            7.2.u.;.9.L < B M T T T T T Y ) ) ) +.^ n.@.+.U.$X@.@.+.P.E.B.+.B.@.k.M.E.f.v.b.L.+.@.^ @.[ ] [ f.+.n.f.Y f.' f.L.].",
"            2.T.0.;..X> h l k I P T P T ) ) s.' ' v.sX XwX$X&X$XqX}.}.&X#X#X].E.P.E.&XE.E.qXn. X{.n.U.M.M.M.m.z.h.W A.S.' f.f.sX",
"            V 0.t.Q.7.> N x k E M M k Y ! T T _ ~ @.mXmXMX9X@XlXNXjX9X@XlXbXlXlX/.6X2X9X6XkX9X;X7X].f.k.S.m.h.Z.h.G.d.s.S.f.f.aX",
"            < K /.( > G z M I n n M n M T _ Y ^ ~ #.zXNXhXrX@XlXOXrXpX).pXlXyXpX9.9X@XpXpX).1X6XqX{.j.A.m.g.C.Z.Z.g.Z.g.d.f.f.sX",
"            , , > > t c c c x m m m M M U U Y ~ N P.yXlXeXgXNXrXlXgX3X9X3XuXyXiX|.yX<XuXuX9XkX6XaXR.N.J.k.Z.z.Z.s.Z.g.l.j.Q k.0X",
"            < j c c c t z z m g g m l M U T ~ U ~ ~ 7.7.4.T./.0.8X8.8.@XT.E.2XwXlX%XmX$X$XmX@XfXcXR.[ k.c.l.j.l.Z.h.g.s.d.[ j.&X",
"            j j c c j t c j j j m n M x T T T U ~ G z c B H G G n o.` T M ` _ _ ` _ { ' { N.v.M.H.[ z.A.g.g.h.Z.g.g.g.s.h.z.f.  ",
"            % , j t > > < < < < 6 g l l c z z z j z b V G b j G ~ B ^ ^ ` ^ _ ~ Y ` Y ' ] ' v.] ' [ f.f.' f.h.d.g.s.g.g.h.g.    ",
"              & 2 t t 2 < ; - ; < t V V V V L 2.K V C J K C K J H b H b H b / H / / B H ^ / / / @.{ ~ ~ ^ ! ^ ) ] ) ' ' ) Y     ",
"              O = 7 2 2 2 7 ; 7 7 y Z p t Z } ,.-.A $.>.$.| ;.:.4.X.3.6.3.X.3.4.X.J X.K C H V G j / / ~ G B G / G N G {         ",
"              X @ $ $ + 8 8 7 8 8 8 8 8 # 8 s p i 9 d %.a Z $.-.$.<.&.} ,.%.-.u.r.t.5.-.| p F Z r =.D e e C S C C K 2.          ",
"              X @ $ + @ # 7 = # # $ 8 s 9 8 8 8 9 9 9 i i i a f f d %.%.a f 1.>.<.5.<.;.A A A Z p $.A i i w p A p p             ",
"              @ = # @ o = 7 * * 4 4 4 3 4 4 9 9 a 9 9 a f a f f f <.f 1.&.&.&.1.>.%.5.,.;.,.;.:.-.:.-.-.-.%.*.a w ;             ",
"              X 7 7 @ O 7 u w y C C  . .s  .*.1.1. .1.f 1.1.<.f <.p.1.<.&.1.<.<.&.;.%.p } r 2 p 0 -.$.y p i w p 7 :             ",
"              + 8 8 O O u A q q C  .*.*.u  .<.p.:.1.p.<.>.r.i.r.i.a.i.r.1.r.u.r.>.r.        -.D u *. .; + 8 + 4 = O             ",
"                        y A q q e Z =.    *.e.5.e.p.p.p.,.u.u.u.i.a.a.u.p.r.u.u.r.r.          4X,X-X:X=X-X-X*Xi.y ;             ",
"                        | $.0 q u X.3.3.Z *.e.e.r.t.u.~.y.^.).      a.a.u.u.u.                  4X=X,X4X:X:X,X4X-.r             ",
"                      o D  .; 0 V ..=.C e Z -.6.+XOX1X4XrX5X                                      ,X=X=X,X,X:X:XD C             ",
"                      . y u * q C 3.=.- r V X.6.~.*X1X;XtX3X1X                                    ,X,X,X4X,X=X5.0 r 6.          ",
"                  :.q 3 :.D O ; | 6.2.: Z Z X.w.+X,X1X!.1XoX)._.:X6.5.^.$.-.*X                    ^.>X).r.+X,X$.; Z w.          ",
"              u ..| F *.e.u.~.+X~.+Xw.4 u & u X.2.w.).>XeX1X3X1X1X:X).).-.:.vXtX                  OXt.% S :.S p t S t.          ",
"          6 4 | 6.... . | t.6.r.~.OX~.4 6 4 4 4 & & % 1 % 6 H 6 S K w.T.K 9.tXnX                  :X~.o - 0 * ; * Z ^.          ",
"    - - u ..5 O.~.| . o :.=.O O C ~.~. .u y.e.+X~...| % % H X.X.C < V K t 9.1X5XrX                5X,X=X,X-X*X+X^.6.^.          ",
"  ..% 5 e w.u O.~.6 o . *.:.Z 5 u +X~.=.4 @X+XgXgXtXlXe.X.>XlXnXkXgXOX;X3.I.eXeX>X              | ;X^...,.,.,.r.,.-.y.4X        ",
"  =.& - & X.- 4.w.o o . e.X.q * X.OX~.4.5 4Xy.gX4X5XCX^.X.>XnXBXBXCX3XrXT.T.pXpXOXMXBX        o o :Xy.. . O = 0 7 y D ; r e V   ",
"S 3.1 - % V 6 w.4.V 6 o e. .5 3 C +Xw.4.6 4Xt.vXgXrXbX^.e.>XlXCXBXCX@X>Xw.w.5XrX~.3XvXgX6.  e.o 5 =Xt.* 3 7 i p A D Z . - < ;   ",
"V *.% - - X.C w.4.+XOX5 6.:.y * H OXy.4.- OXe.bX>XgXnX^.y.,XbXnXnXnX>X3X!.~.tXvX+X>X,XgX~...3.o + 4Xi.. 2 # 8 -.} i p + 0 t V *X",
"} S % < % X.6 T.4.w.>X4.e.| 5 3 X.+Xy.O.6 +Xe.bX3XgXvX^.~.>XbXBXnXBX@X3XOXy.rXiXOX1XX.=X~.X.:.* - =Xy.O O + i A i 8 A * q Z Z _."
};
