/* XPM */
static char *_029478359_236_0_963_800_1920x0_80_0_0_0ae00eee0ca846f2bb688e5a8cea2e3c_64x64_removebg_preview1695655824[] = {
/* columns rows colors chars-per-pixel */
"64 64 246 2 ",
"   c None",
".  c #010101",
"X  c #0D0201",
"o  c #09070C",
"O  c #140201",
"+  c #1A0201",
"@  c #180908",
"#  c #18140B",
"$  c #0B0916",
"%  c #160D19",
"&  c #151314",
"*  c #1C1A1A",
"=  c #171618",
"-  c #290705",
";  c #320204",
":  c #3A0302",
">  c #370A08",
",  c #26140B",
"<  c #38130C",
"1  c #2B0D12",
"2  c #2C1C13",
"3  c #241917",
"4  c #341D14",
"5  c #371715",
"6  c #3C0816",
"7  c #28251B",
"8  c #3A271B",
"9  c #1D1A22",
"0  c #191936",
"q  c #0A1531",
"w  c #231C22",
"e  c #291C24",
"r  c #361926",
"t  c #31142C",
"y  c #1E2525",
"u  c #1A233B",
"i  c #1F3028",
"p  c #242225",
"a  c #2B242B",
"s  c #2C2B2B",
"d  c #282729",
"f  c #352723",
"g  c #342824",
"h  c #3B2B24",
"j  c #37282A",
"k  c #3C312C",
"l  c #35342C",
"z  c #2C2A34",
"x  c #392B33",
"c  c #353533",
"v  c #3B3332",
"b  c #3C3A3B",
"n  c #383839",
"m  c #2B352D",
"M  c #112019",
"N  c #430102",
"B  c #4C0202",
"V  c #460608",
"C  c #550507",
"Z  c #4A0914",
"A  c #560C15",
"S  c #491618",
"D  c #561717",
"F  c #4E140F",
"G  c #670909",
"H  c #760509",
"J  c #760B16",
"K  c #661718",
"L  c #6A121C",
"P  c #46271C",
"I  c #6A221D",
"U  c #76241E",
"Y  c #571924",
"T  c #671C25",
"R  c #741828",
"E  c #472727",
"W  c #582729",
"Q  c #4B352C",
"!  c #49352A",
"~  c #53362D",
"^  c #492D36",
"/  c #423535",
"(  c #443C3B",
")  c #483736",
"_  c #573A36",
"`  c #5F2D30",
"'  c #672428",
"]  c #7A2A26",
"[  c #693B38",
"{  c #783839",
"}  c #6B312F",
"|  c #3C443B",
" . c #45403B",
".. c #4C423D",
"X. c #5D453C",
"o. c #564338",
"O. c #63493E",
"+. c #73523D",
"@. c #71453A",
"#. c #101846",
"$. c #162652",
"%. c #3D3C43",
"&. c #38374A",
"*. c #252B55",
"=. c #2C304D",
"-. c #1A2B74",
";. c #253877",
":. c #2E3867",
">. c #473D44",
",. c #573D47",
"<. c #6B3A40",
"1. c #3B454A",
"2. c #36486D",
"3. c #4C4443",
"4. c #44454B",
"5. c #484647",
"6. c #554C4A",
"7. c #574947",
"8. c #57534C",
"9. c #494A55",
"0. c #594D54",
"q. c #4C5654",
"w. c #545353",
"e. c #5B5C5B",
"r. c #595758",
"t. c #44534C",
"y. c #654D41",
"u. c #684B45",
"i. c #784B46",
"p. c #685447",
"a. c #76584C",
"s. c #625B5B",
"d. c #695957",
"f. c #725A54",
"g. c #734E52",
"h. c #6B645C",
"j. c #786556",
"k. c #6D614B",
"l. c #5B5864",
"z. c #464776",
"x. c #4C5263",
"c. c #665D63",
"v. c #715E60",
"b. c #5A6166",
"n. c #5E6871",
"m. c #636364",
"M. c #65636B",
"N. c #696867",
"B. c #766968",
"V. c #78716C",
"C. c #6B6B72",
"Z. c #676A78",
"A. c #776E76",
"S. c #6E7579",
"D. c #75747B",
"F. c #797777",
"G. c #6B716C",
"H. c #5F615F",
"J. c #86060A",
"K. c #870C14",
"L. c #940E15",
"P. c #8A1617",
"I. c #941717",
"U. c #920B0D",
"Y. c #8B221D",
"T. c #9C241E",
"R. c #8E1A23",
"E. c #862826",
"W. c #962826",
"Q. c #81342A",
"!. c #92332D",
"~. c #85363A",
"^. c #953A37",
"/. c #A62C2B",
"(. c #A0231F",
"). c #9B423B",
"_. c #8A483C",
"`. c #843F44",
"'. c #9B5C58",
"]. c #8F4B51",
"[. c #A74C4D",
"{. c #876B5A",
"}. c #95675A",
"|. c #84765E",
" X c #8E6B54",
".X c #AA655B",
"XX c #86756A",
"oX c #95786A",
"OX c #887977",
"+X c #8D716F",
"@X c #A66763",
"#X c #AD756D",
"$X c #964D60",
"%X c #C17E76",
"&X c #84827B",
"*X c #958475",
"=X c #92957B",
"-X c #A98678",
";X c #B88579",
":X c #AE907E",
">X c #233581",
",X c #4C5891",
"<X c #6E7883",
"1X c #7A7C86",
"2X c #877B84",
"3X c #7D848B",
"4X c #7C8392",
"5X c #8A8787",
"6X c #948A87",
"7X c #94928C",
"8X c #848B93",
"9X c #8B8D95",
"0X c #8B949B",
"qX c #959393",
"wX c #999998",
"eX c #928E8F",
"rX c #A68C80",
"tX c #B78E86",
"yX c #A99689",
"uX c #B9978B",
"iX c #A49D9C",
"pX c #A5989A",
"aX c #B19494",
"sX c #A8A59A",
"dX c #B6A496",
"fX c #BFA08C",
"gX c #8C95A1",
"hX c #949AA3",
"jX c #A39CA4",
"kX c #97A1AE",
"lX c #9AA4B1",
"zX c #A7A7A9",
"xX c #B4A9A9",
"cX c #A4AAB6",
"vX c #B9B1B7",
"bX c #B3B0B4",
"nX c #9EA09D",
"mX c #CC9388",
"MX c #C3A29A",
"NX c #D2AB9A",
"BX c #C7B2A9",
"VX c #CDB0AC",
"CX c #BEC3BF",
"ZX c #DED1BC",
"AX c #B5B6C6",
"SX c #CBC8CD",
/* pixels */
"                                                                                                                                ",
"                                                                                                                                ",
"                                                                                                                                ",
"                                                                                                                                ",
"                                                                                                                                ",
"                                                                                                                                ",
"                                                                                                                                ",
"                                                                                                                                ",
"                                                              - - ; ; ; > < > 6 > > ; ; ' { $X' N   -                           ",
"                                                    - O O + 5 5 S W Y ` Y S W Y Y Y Z Z Z A R ' } } >                           ",
"                                                ~ r r E j E r 4 5 X % O X @ @ X X X X X - + O ; 6 6 r ;                         ",
"                                                @ + + + + O O O X # 6XV.s n | e.w.r.r.8.s.( g f 3 , + >.                        ",
"                                                j ^ ( ,.g.v.B.A.F.V.pXeXc.F.eX5XF.3XqXeXeXiXvXpX7X&Xh.XX                        ",
"                                                +XXXV.s.V.s.s.0.7.7.6XOX6.C.4.4.C.D.1XZ.l.M.qXl.b.N.&X                          ",
"                                                u.3.,.k 3.s 5.w.,.>.6Xc.%.9X&.Z.kXcXlXgX1XZ.hX9.d n 9.                          ",
"                                                7.>.r.6.N.n N.hXzXjX2Xx.&.0X<XlXkXcXlXlXcX4XAXZ.S.M.                            ",
"                                                B.7.v x e.s >.c.M.9.D.M.n.3X0XkXkXkXcX4X4X1XcX2.x.&.                            ",
"                                                m.r.s 3 s n w.C.c.z D.1X| 0X3X4XkXlX<X9.<X3XbXx.<X<XkX                          ",
"                                              pXC.s.N.M.A.4.A.wXl.d q.n.q.3XhX0X4XcX<Xn.hXgXSX0XgX1XlX                          ",
"                                              xXA.D.bXjXzX4.9.n 5.l.1.n b.0X1.0XhX3X1.t.8XhXAX3XgX1XcX                          ",
"                                              2Xc.4.9.l.c.5.w.>.b.w.zXt.q.8Xe.q.3XG.q.q.G.8XzX1XZ.4XcX                          ",
"                                            VX2XA.l.A.1XeXw.s.5. .m.m.w.e.&Xe.e.8XF.&XS.m.wXhXq.c.S.zX                          ",
"                                  @X        pX2Xs.A.pX0.N.( f.g 7.N.3.8.&X&X&XG.7XnXnXnXG.5XwXH.M.0.zX                          ",
"                                g.@.{       xX9X0.F.2X3.3.) d._ k h.8.l  .*X .| | ..5.=X5XyX7X..s.C.xX                          ",
"                              t g.u.P #X    SX7Xs.B.s.3._ _ _ O.! h f , 3 B.8 2 8 k 8 h h *X7X! 7.8.xX                          ",
"                            $ = / 7 X.BX    vXsXd.h.) _ _ ~ _ O.h 8 8 2 4 XX) ! ! ! h 8 8 V.*X! 8 7.7X                          ",
"                          z.$.q 9 X ( sX  BXzXsXV.h._ 7.O.E _ ` p.! 8 2 2 {.Q Q ! ! 8 8 8 oX:Xo.o.h.=X                          ",
"                          ,X2.q z n w 5.iXxXbXsXh.h.d.p.f.O.g.u._ 2 2 4 8 +XQ 8 P 8 P 8 4 |.*XO.XXj.yX                          ",
"                        ,X-.:.q $.>.0 a 9XzXjXpXV.d.XX8.f.o.7.7.o.7 2 2 P *XX.o.+.O.+.y.4 *X=Xk.V.k.dX                          ",
"                      -.>X-.:.$.#.#.0 0 Z.bX5X2XV...OX8.s.( >.0. .8 4 , 8 +XX.p.o.+.y.y.4 *X*X+.j.k.sX                          ",
"                    #.;.>X$.#.-.:.#.*.0 &.jX9X2Xh.7.V.G.A.M.N.M.h l 8 7 o.*XQ ~ ! ! o.O.P =X*Xk.|.|.dX                          ",
"                    #.=.2.*.#.$.*.:.<X=.l.2XxX2XN.V.6X7X5X9X5Xc.&X*Xo.7 ..7Xo.o.! ! o.+.8 *X&X+.*X|.BX                          ",
"                  $ z =.l.l.% >.*.z.AXc.f.{.MXy.f.A.6Xm.>.>.C.A.OXOXV.v.N.zXk 7.~ ~ X.a.~ yXyX X X}.VX                          ",
"                  . a 0.2X2Xt &.0 *.zX5XX.{.-X[ E ^ _ 7.d.>.^ 7.^ Q / / 6.7X/ ! E P ~ i.@.uXfX-XmXmXMXNX                        ",
"                  . t &.v.2Xl.t z.*.l.vXf.a.rX_ ^ 1 + < u.` W i.f.v.A.F.&X7Xh.d.o.o.i.@X-XNXNXmX.X'.+.:X                        ",
"                  . z t ^ v.+X,.*.z.9.B.a.a.oX[ E > - < } F F F W _ g.{.*X{.j.oXmX;X%X.X.X.X].U U ] @.tX                        ",
"                  . z e x x c.2X>.0 z 1 P  X{.` E 1 - ; V : B B B F V F }.D V A G G P.H Y./.W.Y.Y.] }.uX                        ",
"                  . p e z 1 x 0.2Xt , 5 +.oX~ E S - - : V N C B B A N N @X] G G H J.U.J.U.(.(.T.W.U }.tX                        ",
"                  . w 3 e w e j ,.oXu.} -X X5 _ g.^ 5 - : ; V Z B C C B '.I G G H J.I.U.U.(.T.Y.!.] @XuX                        ",
"                  . w p j %.7.7.E P oX X-Xi.- 2 ^ 0.7.Q u.` A V A B C F '.K C G H H J.U.U.(.T.T.T.E.}.MX                        ",
"                  . p # w a 5.0.p.4 P +. XO.O 1 3 e x ! E <.$X$X~.T A C '.T G G H H K.K.I.W.Y.T.W.^.@XuX                        ",
"                  . o p 5.a p 6.0.p.o.*Xo.a.e % $ % 3 1 - 6 Y Y `.`.].{ '.Y B G L H H H H Y.E.).E.!.;XVX                        ",
"                  . . c F.m.9 z C.C.s.xX6./ a % $ = # , ; : N Z ; Z W <.'.[ K K K P.!.!.).).Q.Q.E.E._.yX5X                      ",
"                  . 9 %.D.D.9 d Z.Z.S.zX4.$ $ $ % # O @ > : V A Y Z : > W } _.].[.[.[.^.^.).] ] ~.] W O.qX                      ",
"                        <XF.m d 1.<XS.S.& o o $ & o X @ ; : 6 A Z Z Z T D K C C G H K.H K.R.E.!.E.{ #Xf 8.                      ",
"                          S.1.z u b.C.s o $ % p = * # # < ; Z Z : A W ' A C G J J.J.L.L.I./.P.E.E.{ tXB.* D.                    ",
"                          q.c 1.y %.8.@ # @ z %.* * # # @ 1 6 6 6 S < > > : B K H H K.J.L.W.R.!.Q.} +XaX7 l.                    ",
"                          c.n 1.& c v 2 O 3 j b v m 7 # O , r t E 5 5 < W S V C G J K.K.R.W.E.E.} W oXpXl m.                    ",
"                        =.4.d z & j / f f h ) 8.h...7 = # & o b g.j j ) h _ W Z A J J R R.Q.] I 5 f 6X7XM G.                    ",
"                        t 9.y y * c k g j k / )  .7.d # = . d F.@ j = / j / W E Z A L T ' ' S < 7.qXzXw.y n.                    ",
"                        % 9.9 = = s c c s g v 8.8. .* o & . %.1X>.x 3 b 3 3.7._ Y S S S 5 5 7 7 h.b.| 3 2.                      ",
"                          9.y = = = s c d & s r.N.s & 7 9 % 4.2X@ x v h.c = = 8 x 1 , , 2 s | q.d y 1.                          ",
"                            p = = = d b ( k o.p...g & w * % z jX,.r 5.wXb.i q.l s # #                                           ",
"                              a = c r.                  r.a w bX>.% 1.F.G.i M i c 8.                                            ",
"                                                          3.& e.vXb d 1.q.t.| m                                                 ",
"                                                            c * zXeXo | q.i t.                                                  ",
"                                                              l = zXzXH.i G.=X                                                  ",
"                                                                  ..G.CXwXZX                                                    ",
"                                    ZX                                                                                          ",
"                                                                                                                                ",
"                                                                                                                                ",
"                                                                                                                                ",
"                                                                                                                                ",
"                                                                                                                                "
};
