/* XPM */
static char *result[] = {
/* columns rows colors chars-per-pixel */
"64 64 57 1 ",
"  c gray19",
". c #2C2C2C",
"X c #282828",
"o c #2A2A2A",
"O c #252525",
"+ c #232323",
"@ c #1E1E1E",
"# c #1D1D1D",
"$ c gray12",
"% c #222222",
"& c #272727",
"* c gray15",
"= c gray14",
"- c gray11",
"; c #202020",
": c gray16",
"> c gray17",
", c gray18",
"< c #2C2C2B",
"1 c #2B2B29",
"2 c #2C2C2A",
"3 c #2F2F2F",
"4 c gray13",
"5 c #2D2D2D",
"6 c #30302F",
"7 c #2D2E2B",
"8 c #2B2C29",
"9 c #292928",
"0 c #323232",
"q c #2F2F2D",
"w c #2D2D2B",
"e c #292927",
"r c #282928",
"t c #2F2F2E",
"y c #2B2B2A",
"u c #313131",
"i c #353535",
"p c #373737",
"a c gray20",
"s c #191919",
"d c gray22",
"f c gray21",
"g c #343434",
"h c gray10",
"j c #393939",
"k c gray23",
"l c #434343",
"z c gray24",
"x c #3A3A3A",
"c c #3C3C3C",
"v c #414141",
"b c #3E3E3E",
"n c gray25",
"m c #3F3F3F",
"M c gray26",
"N c gray27",
"B c white",
/* pixels */
" .XoO+@@#$%%&X*XO**XX===%O*%+++++=%-$;%@@+O&:;;@$%.XO>,.<12:OXX*",
"3 &,.;;$#@;%=&:.&*O*:*&X*OO4%O+++O4#$;%%;O+;+$;@-O3:=o536789O+$$",
":o=50O;@$$$=X&&5>X*&o&*:oOO$;&X=4=4$;@@%+O+$#-#;$O5&+X:.qwerO%##",
"=O4Oo*%;;;%XoXXXoo*&o>&&:=+4$=*==O%;44;4+::%$;@44OXo>>:,t<yX=+$$",
"==+=*=&4@;4O.>5XX.XXXo*&X++44%O&=O+4=%%O=::O=%=**X*. oo55.X=;;;4",
"=%OX++>=#+=&,>oX&>,>*::*&*%+O+&:%+++XO%*&>&=O4%X*O&::Oo5.o=+#@$;",
"$@OO%;*o44%&5>>>:X>.&oo*&&=OX*:&4+OO:o+*o5:&O+%XO**=*+&35:+;;;$-",
";%X+%;4O=4*O>35>>oo&OX>&XXO=OOXX==*XXXO*X.>.>O*:>::=OO&>>*%$+%;@",
"O::X%;;==%&O&5,5,>5X=O.:&&*O==XoOO+::X:XX:>5.O+:5:&=X&O&:=$+O44;",
"o5:o*%%OO+OOO..53..o==o::&&&OO*oOO+Xo>&&:o.,,.X.5o>:o>O=*O%4@-;;",
"XuoX&+O&&=%*&.::o.o:*O:Xo:*X:=*.&X*:5.X:. 05.5,,,>5.o5XO&.X%#-#@",
":X**O*O=X&=OXo>X>3.:*O&X>X:>X=*>..>:3**&5ipa3,03>o0,,3o:X>X4@-ss",
"XXXO*55&&X::*X,::55o&++Xo&&.:O&:355>oO*,udffipfu,>apg5ooOX&44-hh",
":XXo>5.&=*o5&>g,o.3.&OOo>&*o:*::3 ,o:&:gfdjpklzja,o,a >:O&X%=;h#",
">Xo>:X**OX:&&uja>.5oX&*:.XO:5o>o5ga.oo xcxjfxvbcf,X*.03>*&X+OX+@",
"5oO&=+%&X:>X:0a,.>5.oo&O::*& ,>>.dk >,gkkcxdznncg>X&O,g,*=&O4*X%",
",>&=4+O%+&>5>aa >>u,oX*&>5XX,   >ax3o fccxxzvnmcg.:5&og.O*X*;=O+",
"X&O*4%=;%X:>X5ua3,a55>&>,,.5>,u,.gpa, gxcdjvmbzzj3:o*O X*&OX=+O+",
"5X=XX++OO&:X& gaga,.,5.5  3,.>, >3,gg33ifipcbbvnki>XOO5&OO%&%4=*",
"3>=O*O+O*&OOo0agfi,555,,:500,:5 o:o,0 o3ufddbMvzkdu5&Oo>&O4=%;**",
".o*+4%O>..:50g3uau aa,. ,:3,oo,3.*:>,,&*3pddvNbkcf,.>>o5:%$=*$44",
">:&=*X&5>X5 ada00>53 oo3g o>oo>5.X>5>o*4.0kmnmmzkg55.3,o&+;*=$;4",
"X*=+::X>5X3u5.0gu5.,,,&5i,*,>535>o:3o*O&>>xmbmbbpau3X:5>5&%&+;4O",
"*&&O&&*X55,ag3 3u33.,3X>u:&3> g>*O:io=*Xo>0zbmbkiua3:&>.X+=O%+Oo",
"&:o>Xo&:53uai0  ffu,5.,>o>,353u,&o,0>++o5,izczkp, g3,:&:*$*=+Xo5",
"&:..&o. gg aa.o0jxig uu>> 3.,5>,..u33X:>3,dbkcxf55u.5uoX>=X+=::o",
",>.,..5 ggu335 fji,0g >:,i>&5 5uuu0u0,.X>,jcxxxp5.35&>:=X,5&O:oo",
"o&&>..,30u03..ippgauau>*o >5, 5u5u0pa 3:&0kxxkkpu 33:&&=&o>oX&:X",
"oo&>5.uuu0u.>. ppjj,0g,>5,3,:o>,Xadgu>3o,pzzzzmjaaa ..5X3>5.,5..",
" 5, uapgaia05o&>,ji.3g 5>5u,5.>5ofu0a. : dcczmvk0003X3 o00i00f0,",
",..03   3 oo%+Xoo ..,  5>. >5.&>,5&,5X*&>gkdcmbxaig XX.:u0gg0i,.",
".,o5., 33 o+OX*X3.,53u>,.o XX:3oXo.,>&*&ogpidjjpd0.o&O>o>53  3X&",
",,>>.5 >5u3*X:==o*Xo,5Oo. d3:>g&+o,.o&&O.idgaiiaa,>*o=&:X.33 >Xo",
"o5>>5>.o.u >=&&&Xo>>:,>o,gdg .>*=&3 :++=.gd00aid3o,X>:XXX:o55o.u",
"o.o.,:&.,,,>&o5X>3u3o50uugjj X=%>.uuX+=X.0g3,,5u,,5.:*&OXX*o5 ua",
"X***&=&,,o.o.0:Xo. u,:5u: i0>:&:3ga.>o,a0 0,.o,..oo5:>==+=O*:  5",
".*O=OO>5.o, > >5,,. 0.5.X.3>Xo.:,g0,0 0fpga0u 0uu >5>oX.>X*=*3uX",
">X*&O**&::3u05gg , a o:o&=X:oog,3a 5.3uga 0pa u ,g3,.>5a>&**&3a5",
">:oX=**+%O3af,ugu gaXO&.3&=&>,fa3uu3>agii uag0 0.0, 3a ,**&:O..:",
"X:>>*=%;;O. 003u003.X**X.:*o ug0u0gauppfdiuuu,0i .5gpg.o*=OO$*.O",
"=X>&=%=$O5:3u,53  3 &O*O>:3uuu3 aiigpkjaf0uguo g05:.ug,>:&%%$&.*",
"*XX====;:3.,3o>5>.,>=&..,,u,5g3 0gf updgf 0gao.0 5XX.u.53,&*+oo&",
"*XoO%>,:o,.,..5,.,o;*.&,3,3 3u3,0ag,5 fpda,   ua0.XX&:o3o.oo::&O",
"XOX&O5auo55.5>3a5,:$*X*>ouu5 . uaau.,0jjdf5333uip ::.:X:X&>o&%O&",
"*=:..5 u>&oo, 5.4*o++Xu3,g3, 0 5 u3>:,gkfi,>,35gpg5OoXXX3.3&4=:X",
">X:o>5.,,X&>5ao*;%X+=>gppppfga 5gu3oO>,g3,,3 5oaf uX&X*>:5,O@=3X",
".o::o5,3 >:33,oXO4X*&>a0a0jfg,03u3u.:5o ,uuu X%>3o,,a>:3:.5.+>3.",
":..:5u au.>3.oooOO5>>>>.: dpu5u5oa.&,,5u.uup ++: o.,p35 >% i:oX%",
"o5X:.,.,35:::X::=O535o*X:add55i0o,>o 5ii5>,p3O:o &X,a>u0X=3go++%",
"0a>>, a ,5oo:*oo*&X50 >o,0fdugp,.53:o: i,api3:X55Xo3uX35&X>3=O*O",
"giu 5.fi5>5o&&.3..X: p, u3afgg :u3 &&.:uoib5,>=..X>3u:.55*+&=$%=",
" g >X.i0oX&&o..3,3 o3p,  0u3u05oa,0X:5OoX3j3a .>3>:0go&X&::X&==*",
"5aa5:.uu:oXO5u533 0uu,.  u 5ua 3i5>=.3 ,X&ufiau3,0 uj3o&>.:&*..o",
"5api.o ,&X>. 0,3au au5,5,> 3 03ap,XO5ij *:5pfu30au00jiu>.o=OX..X",
"0ajj5>aa*=O>o,30giig333.550aaa5ap3.>.f3,&X,pa,, a0u0dig.&X:&+=&=",
"jfid33u ::O%@*0fgfi,50 .X.appdiaau3uu5u0&O3fa>33 03apauX=::O$4**",
"dp0 ,oX&u:=+$* pgia53uu3*oajppfggg0a03ai3. ff.uu,33adf0>*OX+$%+&",
"pga,5,O;::::&O> 0au0aaig.>ddgijgiii u0gfagapp, u,3,api oX&O4&=%*",
"dia,. &@$>u ,o,3g  00gdi0uaippxfppxfi0agf0djg,5>035 au3>.o4;*%+X",
"jji3,55:& 3  ,330  3 3gfgpifdjjdjdkjjdfgiafjp0.ou >. 3353:XO&+$%",
"jxi533ugu 53  5,,u5,3350gpkkzkjxdpjjdfpfffijxao. u,>o:&>5o.O44;+",
"pf ,>,ugg53ug5...u>>3,oufidccjfpdfddpgapxjfjdg5  ,u5oX*:.:%*=+*O",
" 35>&:3. 3 a0>,5,,>.,.>affjxjppixifppggdnnkjji u0.3u,*o,&=4*O;%;",
"a:&**>.=X,3,  ,,u0  0u idpxjdfagcjdiifddzMmgd00aa3aa0.,3&O+=;$$$"
};
