/* XPM */
static char *buyuksehirden_pinarbasi_belediyesine_yeni_zabita_araci_destegi_32_64x64_removebg_preview1695655854[] = {
/* columns rows colors chars-per-pixel */
"64 64 246 2 ",
"   c None",
".  c #010101",
"X  c #060806",
"o  c #050609",
"O  c #06090B",
"+  c #0B0B0B",
"@  c #090808",
"#  c #0C0E11",
"$  c #020A17",
"%  c #0D1113",
"&  c #0E1419",
"*  c #131314",
"=  c #14161A",
"-  c #15191B",
";  c #1B1B1C",
":  c #191716",
">  c #110F0A",
",  c #2F1E1D",
"<  c #21201D",
"1  c #2B291A",
"2  c #332E1B",
"3  c #091626",
"4  c #151A22",
"5  c #1C1E21",
"6  c #011738",
"7  c #000C2E",
"8  c #1E2124",
"9  c #1E242B",
"0  c #16202C",
"q  c #11253E",
"w  c #222323",
"e  c #23262A",
"r  c #26292D",
"t  c #2B2C2C",
"y  c #2B2822",
"u  c #343229",
"i  c #2A2D32",
"p  c #252C33",
"a  c #2E3135",
"s  c #2C333A",
"d  c #273037",
"f  c #333435",
"g  c #33353A",
"h  c #34393C",
"j  c #3C3C3D",
"k  c #3B3B34",
"l  c #2F312C",
"z  c #4B1E22",
"x  c #443B33",
"c  c #4E2526",
"v  c #45433C",
"b  c #011C45",
"n  c #001C50",
"m  c #000F40",
"M  c #02234B",
"N  c #0B2548",
"B  c #052959",
"V  c #193659",
"C  c #102C4F",
"Z  c #3A3D42",
"A  c #353B41",
"S  c #283D58",
"D  c #012C6B",
"F  c #022B63",
"G  c #0B3566",
"H  c #03346C",
"J  c #0A356C",
"K  c #0A3668",
"L  c #123A6C",
"P  c #173965",
"I  c #023573",
"U  c #0B3B74",
"Y  c #0B3D7D",
"T  c #063978",
"R  c #143D74",
"E  c #213F61",
"W  c #3D4247",
"Q  c #37485A",
"!  c #154378",
"~  c #17406E",
"^  c #2C4565",
"/  c #314C69",
"(  c #264C77",
")  c #3B5A7D",
"_  c #304F73",
"`  c #434344",
"'  c #4C4A45",
"]  c #43454A",
"[  c #45494D",
"{  c #4A4C4C",
"}  c #474943",
"|  c #544D46",
" . c #55514C",
".. c #5A564A",
"X. c #444C52",
"o. c #4A4E53",
"O. c #4B5258",
"+. c #525353",
"@. c #53565A",
"#. c #55595B",
"$. c #5B5B5B",
"%. c #595854",
"&. c #504F54",
"*. c #635D5A",
"=. c #66655D",
"-. c #5B5E62",
";. c #485B6D",
":. c #5D656C",
">. c #5C6165",
",. c #586777",
"<. c #466079",
"1. c #666869",
"2. c #736D66",
"3. c #686D73",
"4. c #6B7176",
"5. c #69727A",
"6. c #727373",
"7. c #787A7A",
"8. c #71736F",
"9. c #877D77",
"0. c #86817C",
"q. c #023C84",
"w. c #013D8A",
"e. c #0A4388",
"r. c #174884",
"t. c #1B508B",
"y. c #074895",
"u. c #134F93",
"i. c #1B5597",
"p. c #08539D",
"a. c #25558A",
"s. c #235898",
"d. c #365D8A",
"f. c #1758A5",
"g. c #0655A7",
"h. c #1963B7",
"j. c #1C61AF",
"k. c #246AB7",
"l. c #536C8A",
"z. c #496C96",
"x. c #537497",
"c. c #687989",
"v. c #7A7E81",
"b. c #737C84",
"n. c #677B93",
"m. c #587DA7",
"M. c #4C75A4",
"N. c #2679CA",
"B. c #7D8284",
"V. c #7B838A",
"C. c #778188",
"Z. c #68829B",
"A. c #768695",
"S. c #6F818B",
"D. c #758DA9",
"F. c #7A93AB",
"G. c #7594B7",
"H. c #6988AB",
"J. c #3289D8",
"K. c #4D8DD3",
"L. c #739CC3",
"P. c #74A8E2",
"I. c #84898C",
"U. c #8B8D8E",
"Y. c #828584",
"T. c #93958C",
"R. c #858C93",
"E. c #8E9394",
"W. c #8D969B",
"Q. c #919699",
"!. c #939A9C",
"~. c #969999",
"^. c #938F89",
"/. c #A88788",
"(. c #A29695",
"). c #8C9CAB",
"_. c #8898A6",
"`. c #949DA2",
"'. c #999EA1",
"]. c #939FA9",
"[. c #879CB3",
"{. c #9DA2A4",
"}. c #96A2AD",
"|. c #9BA4AC",
" X c #9AA4AB",
".X c #9DA9B2",
"XX c #9BACBB",
"oX c #97A7B7",
"OX c #89A1BC",
"+X c #A2A5A5",
"@X c #A9ABA6",
"#X c #A1A6A9",
"$X c #A5ABAD",
"%X c #A9ABAA",
"&X c #A3ADB3",
"*X c #A5AEB7",
"=X c #ACB2B5",
"-X c #A5B2BC",
";X c #ABB3BA",
":X c #A7B0B7",
">X c #B2B5B4",
",X c #B3B9BC",
"<X c #B9BCBB",
"1X c #B6B7B7",
"2X c #B3AFAB",
"3X c #9AA096",
"4X c #C4A0A4",
"5X c #C89B9F",
"6X c #BCC2BF",
"7X c #95ACC4",
"8X c #98B5D1",
"9X c #A5B4C2",
"0X c #A9B8C7",
"qX c #B3BCC3",
"wX c #B9BFC4",
"eX c #86B2E3",
"rX c #BBC2C4",
"tX c #BBC5CA",
"yX c #BCC8D2",
"uX c #ACC4DB",
"iX c #B3D0ED",
"pX c #9AC0E5",
"aX c #C3C5C4",
"sX c #C4CACB",
"dX c #C8C9C9",
"fX c #CDD1CE",
"gX c #CDD3D3",
"hX c #C7D1D9",
"jX c #D3D5D3",
"kX c #DADDDD",
"lX c #D5DADA",
"zX c #DCD1CF",
"xX c #E8DDDC",
"cX c #DCE0DF",
"vX c #E1E3DE",
"bX c #D8DDE2",
"nX c #C7D7E6",
"mX c #D9E2E7",
"MX c #C7E7FE",
"NX c #DAE9F4",
"BX c #DDF2FF",
"VX c #E6EAEA",
"CX c #EFF1ED",
"ZX c #E8F5FA",
"AX c #F6FAF9",
"SX c #F5EEED",
/* pixels */
"                                                                                                                                ",
"                                                                                                                                ",
"                                                                                                                                ",
"                                                                                                                                ",
"                                                                                                                                ",
"                                                                                                                                ",
"                                                                                                                                ",
"                                                                                                                                ",
"                                                                                                                                ",
"                                                                                                                                ",
"                                                                                                                                ",
"                                                                                                                                ",
"                                                                                                                                ",
"                                                                                                                                ",
"                                                                                                                                ",
"                                              ~.E.U.6.1.                                                                        ",
"          2X=X-X9X0X0X9X-X-XrXVXtXrXrX&X&X X.X.X*X.X*XtX*X X XW.!.                                                              ",
"        8.3X!.}.}.}.}.|..X*X<XNXqX}..X}.}.}.}..X}..XqX0X*XyXyX-X0X-X|. X                                                        ",
"      I.@XT.!.!.I.V.B.v.C.V.I.I.4.:.1.:.:.3.3.5.5.5.5.b.C.`.C.A.W.R.V. X:X$X                                                    ",
"      U.@XT.#XX.. o + X X . . X & g r % & & # # # $ & p 9 = = 4 = & - d s W 4.>.                                                ",
"      v.B.@X`.Z . o o + @ # e @ 8 a W 9 4 i w - * # # 5 r # * * % % % % O X 4 p j                                               ",
"      C.U.=X6X$.. + o + # Z < # e 4 i p = r 4 ; * % * * = # * * X + * - * + # 9 a o.                                            ",
"    7.8.Y.$XlXB.o + o @ : a o 5 Z g W e A Z i 5 # 4 e e i e 4 o X ; = ; : * - % 9 s +.                                          ",
"    } ' Y.{.>X{.% % % @ w i o 5 [ Z @.g A O.Z Z a i A a g a i w % & 8 < - + % ; 9 p W #.                                        ",
"    1 l *.4X'.'.i # = # 8 w o ; :.f 1.&.Z ] o.&.o.o.] a f g i g W W X.g ; ; O & h p W Q                                         ",
"    l l x (.~.#X#.o $ o : e o 5 6.f f { Z f &.@.[ Z g i Z { Z e r W W l w l & - & 9 d s [                                       ",
"    =..., /.aX'.!.i - 5 o # o # t < y ; : < ; 5 ; ; : 8 e t w 5 8 * % : * X O O % & 3.X.h 3...                                  ",
"    0.0.z 4XSXT.`.`.B.'.8.a f - + * t t o o @ @ + + + : * < r ; 8 < * X X X X X = 9 p 4 X.,Xk =.T.                              ",
"    0.0.z 5XAX+XE.!.'. X=X$X'.Q.U.v.#.[ A r - % + o . X X # 8 % + + % X X X X X X % % . O.,X[ r =.k 2.                          ",
"        c 5XxX~.v.I.R.R.!.`.!.`.#X;X*X$X=X1X1X'.U.Y.0.$.t 8 * % o X % . . X X . . X o . #.,XX.% p s 9 #..X`.                    ",
"    0.  c /.zX@Xv.7.7.7.4.4.4.I.Q.>X%X!.=X$X'.dXdXCXAXfX=XaX2XB.1.#.W a 9 - o O X . . . h 4.9 = p ,.A.).XXXXXX9X}.              ",
"        c /.xXaXwX~.`.'.'.'.!.E.+XfXdX,XaXU.>.=X4XmXcX@X<XCXCXaX X:X|. X|.=X`.V.7.>.{ g f ] 5.R.|.*X9X0X9X7X0X0X0X0XtX          ",
"    2.  | 4XSX1XzX1XE.Q.Q.~.Q.Q.%XfXkXdXwXE.&.1XaX>XjX7.` SXB.E.tX`.).).XXyXAXmX&XtXcXgX=X3X|.{.|.|.}.-X9X-X-X9X9X-XhXtX-X*X  =X",
"        /.aXAXNXNXNX9X0X-X}.`.{.=XdX,X&X#XQ.U.'.+X+XCX8.X jXe -.AX_.Z.H.D.Z.oXA.S.A.$XlXgX X}.!. X&X&X.X|.:XyXtX&X.X&X0X-.3.I.  ",
"    7.  (.kXNXiX8XG.z.m.G.7X0XwX=XfXV.c.b.5.c.,.:.B.jX1.. ,Xe 1.ZXuXpXL.Z.d.z.<.x.<.-X6X6X{.{.`.`.{.6X;X&XrXbXbXtX$X.X;XX.Z U.+.",
"      6.<XmXn.( r.T J L L ( z.[.7X0X7XuXiX7X[.[.[._..X4.$ ;Xp 1.BXZ.G.H.M.) x.F.Z./ tXgX@X3X{.E.!.{.{.,XgXfXVXVXlX;XlXqXW.o.$.1.",
"      3.jXVX8Xr.i.e.L P R R q.u.s.a.a.d.M.z.z.m.m.H.D.F.D.9X)._.hXoXXXiX8XOX7XuX_.S.sXCXfX+X~.E.!.|.=XaXlX6XjXCXkXsXmXgX;X`.+.@.",
"      1.bXVXnXG.t.F 6 7 6 M r.f.e.w.q.q.Y I T T Y U G P ( ( d.;.l.H.G.pXiXMXMXBXMXMXBXZXlX:X}.W.{.+X=XgXcXkXsXsXtXlX6XsX,XrXwX-.",
"      >.zXAXsXmXS $ $ $ 4 q b R e.y.u.i.s.u.y.s.N.j.T Y Y Y I J q.w.w.f.f.p.k.K.K.K.P.eXG.G.F.).}.`.'.,XgXAXVXaX%XfXtX=XtXkXgX;X",
"      #.%XVXbX~.o O 5 4 j { 3 6 e.f.y.I I Y T t.k.f.s.Y r.r.t.s.s.e.w.f.h.y.p.J.h.g.j.p.! ! V x..X~.+X$X7.1.=.1.U.6XdX&X,XmXbX*X",
"      o.7.@XfX&.o t 4 5 5 = 4 7 F i.q.n m 6 7 7 6 N V N N S V V P V G P ! U u.N.J.N.f.f.p.e.L H.*X+XI.r o o o . . +.6X=X.XtXbX,X",
"          7.^.f + = t &.%.3.= 3 6 L U U R V C N N b b 6 3 6 q 6 6 N N b M b B I p.g.q.e.y.y.! G.-X7.* ; 8 - 5 ; > . } 1X$X=XqXqX",
"              a @ a { ` *.] ] 4 7 N J Y r.q.U J U r.r.T F G L G G G G G U U H H D H M n H ! K D.].: - w 8 8 ; - 5 * . 7.>X=X=X;X",
"          r   < * w @.` ] Z &.5 3 6 F F D D D D F H I H B F G J H H L ~ ! a.i.i.u.a.! H I K B OXO.+ 5 i ` x 6.w - - . t %X$X>X{.",
"                - ` ` ` +.` j a = 3 Q _ / S E S V P ^ V C N N C M M M B P a.r.T ! u.i.I ! ~ / _.4 - : ` *.l  .f %.% > X ^.2X~.- ",
"                * i ` %.` | >.f - 3 X.;.:.l.c.c.c.S.A.A.A.n.c.n.n.n.l.l.l.<.( G H ! t.H B B ,.C.# - ] f u  .'  .< < ; X 0.1Xl . ",
"                  = @.$.>.` w - * o . . . . + $ # % & 4 4 e i s A o.-.:.3.v.A._.).oXF.Z.<.Q S.:.* ; x 6...| ' v 1.v : @ 0.1X+.j ",
"                    : [ -.x Z . . . . . . . . o . . . . X > * + + @ . X . . + * - l A Q O.;.3.l * < w t '  .} %.} w ; > 0.T.$.h ",
"                        . . . . . . . . . . . . . . . . . . . . . . . . . . . . + + o X . . . o : : 2. .v v ......u < * : : - Z ",
"                            . . . . . . . . . . . . . . . . . . . . . . . . . . . . . . . . X X + : y w 2.v 2.v | k : : w l f g ",
"                                            . . . . . . . . . . . . . . . . . . . . . . . . . . o + : *.c v v ^.1 : w ; w X . . ",
"                                                          . . . . . . . . . . . . . . . . . . . . X > , 1 9.x v < < l t . . . . ",
"                                                                          . . . . . . . . . . . . . < ; * : : > < f j : . . .   ",
"                                                                                                  . . 1 2 2 1 2 2 u + .         ",
"                                                                                                        . @ > . .               ",
"                                                                                                                                ",
"                                                                                                                                ",
"                                                                                                                                ",
"                                                                                                                                ",
"                                                                                                                                ",
"                                                                                                                                ",
"                                                                                                                                ",
"                                                                                                                                ",
"                                                                                                                                "
};
